<?xml version="1.0" encoding="UTF-8"?><svg id="uuid-fa2ead09-b9bc-4921-94a9-7efc077ad800" xmlns="http://www.w3.org/2000/svg" xmlns:xlink="http://www.w3.org/1999/xlink" viewBox="0 0 1080 1920"><defs><clipPath id="uuid-914f5052-e5ec-435c-9f8c-29e649d3ed46"><rect x="-1494.66" y="-20.22" width="1080" height="1920" style="fill:none;"/></clipPath><clipPath id="uuid-e39bc1fa-1f69-47c6-99e3-eea705c5e098"><rect x="-819.02" y="923" width="1907.61" height="1072.09" style="fill:none;"/></clipPath><pattern id="uuid-f889b7e7-f1f6-46c7-9657-195f91fa947c" x="0" y="0" width="64" height="64" patternTransform="translate(10453.56 8606.59) scale(2.15)" patternUnits="userSpaceOnUse" viewBox="0 0 64 64"><g><rect width="64" height="64" style="fill:none;"/><g><rect width="8" height="8" style="fill:#fff;"/><rect x="8" width="8" height="8" style="fill:#a7a6a6;"/><rect x="16" width="8" height="8" style="fill:#fff;"/><rect x="24" width="8" height="8" style="fill:#a7a6a6;"/><rect x="32" width="8" height="8" style="fill:#fff;"/><rect x="40" width="8" height="8" style="fill:#a7a6a6;"/><rect x="48" width="8" height="8" style="fill:#fff;"/><rect x="56" width="8" height="8" style="fill:#a7a6a6;"/><rect y="8" width="8" height="8" style="fill:#a7a6a6;"/><rect x="8" y="8" width="8" height="8" style="fill:#fff;"/><rect x="16" y="8" width="8" height="8" style="fill:#a7a6a6;"/><rect x="24" y="8" width="8" height="8" style="fill:#fff;"/><rect x="32" y="8" width="8" height="8" style="fill:#a7a6a6;"/><rect x="40" y="8" width="8" height="8" style="fill:#fff;"/><rect x="48" y="8" width="8" height="8" style="fill:#a7a6a6;"/><rect x="56" y="8" width="8" height="8" style="fill:#fff;"/></g><g><rect y="16" width="8" height="8" style="fill:#fff;"/><rect x="8" y="16" width="8" height="8" style="fill:#a7a6a6;"/><rect x="16" y="16" width="8" height="8" style="fill:#fff;"/><rect x="24" y="16" width="8" height="8" style="fill:#a7a6a6;"/><rect x="32" y="16" width="8" height="8" style="fill:#fff;"/><rect x="40" y="16" width="8" height="8" style="fill:#a7a6a6;"/><rect x="48" y="16" width="8" height="8" style="fill:#fff;"/><rect x="56" y="16" width="8" height="8" style="fill:#a7a6a6;"/><rect y="24" width="8" height="8" style="fill:#a7a6a6;"/><rect x="8" y="24" width="8" height="8" style="fill:#fff;"/><rect x="16" y="24" width="8" height="8" style="fill:#a7a6a6;"/><rect x="24" y="24" width="8" height="8" style="fill:#fff;"/><rect x="32" y="24" width="8" height="8" style="fill:#a7a6a6;"/><rect x="40" y="24" width="8" height="8" style="fill:#fff;"/><rect x="48" y="24" width="8" height="8" style="fill:#a7a6a6;"/><rect x="56" y="24" width="8" height="8" style="fill:#fff;"/></g><g><rect y="32" width="8" height="8" style="fill:#fff;"/><rect x="8" y="32" width="8" height="8" style="fill:#a7a6a6;"/><rect x="16" y="32" width="8" height="8" style="fill:#fff;"/><rect x="24" y="32" width="8" height="8" style="fill:#a7a6a6;"/><rect x="32" y="32" width="8" height="8" style="fill:#fff;"/><rect x="40" y="32" width="8" height="8" style="fill:#a7a6a6;"/><rect x="48" y="32" width="8" height="8" style="fill:#fff;"/><rect x="56" y="32" width="8" height="8" style="fill:#a7a6a6;"/><rect y="40" width="8" height="8" style="fill:#a7a6a6;"/><rect x="8" y="40" width="8" height="8" style="fill:#fff;"/><rect x="16" y="40" width="8" height="8" style="fill:#a7a6a6;"/><rect x="24" y="40" width="8" height="8" style="fill:#fff;"/><rect x="32" y="40" width="8" height="8" style="fill:#a7a6a6;"/><rect x="40" y="40" width="8" height="8" style="fill:#fff;"/><rect x="48" y="40" width="8" height="8" style="fill:#a7a6a6;"/><rect x="56" y="40" width="8" height="8" style="fill:#fff;"/></g><g><rect y="48" width="8" height="8" style="fill:#fff;"/><rect x="8" y="48" width="8" height="8" style="fill:#a7a6a6;"/><rect x="16" y="48" width="8" height="8" style="fill:#fff;"/><rect x="24" y="48" width="8" height="8" style="fill:#a7a6a6;"/><rect x="32" y="48" width="8" height="8" style="fill:#fff;"/><rect x="40" y="48" width="8" height="8" style="fill:#a7a6a6;"/><rect x="48" y="48" width="8" height="8" style="fill:#fff;"/><rect x="56" y="48" width="8" height="8" style="fill:#a7a6a6;"/><rect y="56" width="8" height="8" style="fill:#a7a6a6;"/><rect x="8" y="56" width="8" height="8" style="fill:#fff;"/><rect x="16" y="56" width="8" height="8" style="fill:#a7a6a6;"/><rect x="24" y="56" width="8" height="8" style="fill:#fff;"/><rect x="32" y="56" width="8" height="8" style="fill:#a7a6a6;"/><rect x="40" y="56" width="8" height="8" style="fill:#fff;"/><rect x="48" y="56" width="8" height="8" style="fill:#a7a6a6;"/><rect x="56" y="56" width="8" height="8" style="fill:#fff;"/></g></g></pattern><clipPath id="uuid-3fc6dff1-6a57-4f02-9e0b-cf1b1e019751"><ellipse cx="515.02" cy="1581.26" rx="457.75" ry="457.35" style="fill:url(#uuid-f889b7e7-f1f6-46c7-9657-195f91fa947c);"/></clipPath><clipPath id="uuid-aaa71764-038b-417d-96b6-bb2b3d00d933"><rect x="-205.05" y="1115.23" width="1323.66" height="881.66" style="fill:none;"/></clipPath><clipPath id="uuid-58f98cdb-f3e2-482d-a7c6-a8a78c5e666f"><rect width="1080" height="1920" style="fill:none;"/></clipPath><pattern id="uuid-d08893fa-2b69-4230-8cf0-2734b4fdc7c9" x="0" y="0" width="86.12" height="82.97" patternTransform="translate(-22984.66 12001.95) rotate(90) scale(2.15 2.16)" patternUnits="userSpaceOnUse" viewBox="0 0 86.12 82.97"><g><rect width="86.12" height="82.97" style="fill:none;"/><g><path d="M27.69,3.15l3.98,12.24h12.87c3.37,0,4.77,4.31,2.04,6.29l-10.41,7.56,3.98,12.24c1.04,3.2-2.62,5.86-5.35,3.88l-10.41-7.56-10.41,7.56c-2.72,1.98-6.39-.68-5.35-3.88l3.98-12.24L2.19,21.67c-2.72-1.98-1.32-6.29,2.04-6.29h12.87l3.98-12.24C22.12-.05,26.64-.05,27.69,3.15Z" style="fill:none; stroke:#301b44; stroke-miterlimit:10; stroke-width:1.5px;"/><path d="M65.04,39.33l3.98,12.24h12.87c3.37,0,4.77,4.31,2.04,6.29l-10.41,7.56,3.98,12.24c1.04,3.2-2.62,5.86-5.35,3.88l-10.41-7.56-10.41,7.56c-2.72,1.98-6.39-.68-5.35-3.88l3.98-12.24-10.41-7.56c-2.72-1.98-1.32-6.29,2.04-6.29h12.87l3.98-12.24c1.04-3.2,5.57-3.2,6.61,0Z" style="fill:none; stroke:#301b44; stroke-miterlimit:10; stroke-width:1.5px;"/><path d="M72.36,2.29l2.55,7.83h8.24c2.15,0,3.05,2.76,1.31,4.02l-6.66,4.84,2.55,7.83c.67,2.05-1.68,3.75-3.42,2.49l-6.66-4.84-6.66,4.84c-1.74,1.27-4.09-.44-3.42-2.49l2.55-7.83-6.66-4.84c-1.74-1.27-.85-4.02,1.31-4.02h8.24l2.55-7.83c.67-2.05,3.56-2.05,4.23,0Z" style="fill:none; stroke:#301b44; stroke-miterlimit:10; stroke-width:1.5px;"/><path d="M21.95,54.77l2.55,7.83h8.24c2.15,0,3.05,2.76,1.31,4.02l-6.66,4.84,2.55,7.83c.67,2.05-1.68,3.75-3.42,2.49l-6.66-4.84-6.66,4.84c-1.74,1.27-4.09-.44-3.42-2.49l2.55-7.83-6.66-4.84c-1.74-1.27-.85-4.02,1.31-4.02H15.18l2.55-7.83c.67-2.05,3.56-2.05,4.23,0Z" style="fill:none; stroke:#301b44; stroke-miterlimit:10; stroke-width:1.5px;"/><circle cx="50.55" cy="32.86" r="4.07" style="fill:#301b44;"/><path d="M74.47,40.78c0,1.12,.91,2.04,2.04,2.04s2.04-.91,2.04-2.04-.91-2.04-2.04-2.04-2.04,.91-2.04,2.04Z" style="fill:#301b44;"/><path d="M26,51.83c0,1.12,.91,2.04,2.04,2.04s2.04-.91,2.04-2.04-.91-2.04-2.04-2.04-2.04,.91-2.04,2.04Z" style="fill:#301b44;"/></g></g></pattern></defs><g style="clip-path:url(#uuid-914f5052-e5ec-435c-9f8c-29e649d3ed46);"><g style="clip-path:url(#uuid-e39bc1fa-1f69-47c6-99e3-eea705c5e098);"><g><ellipse cx="515.02" cy="1581.26" rx="490.97" ry="490.54" style="fill:#fff;"/><g><ellipse cx="515.02" cy="1581.26" rx="457.75" ry="457.35" style="fill:url(#uuid-f889b7e7-f1f6-46c7-9657-195f91fa947c);"/><g style="clip-path:url(#uuid-3fc6dff1-6a57-4f02-9e0b-cf1b1e019751);"><g style="clip-path:url(#uuid-aaa71764-038b-417d-96b6-bb2b3d00d933);"><image width="5760" height="3840" transform="translate(-205.05 1115.23) scale(.23)" xlink:href="bg-stars1.png"/></g></g></g></g></g></g><g style="clip-path:url(#uuid-58f98cdb-f3e2-482d-a7c6-a8a78c5e666f);"><polygon points="0 1920 0 9.48 1080 9.48 1080 1920 0 1920" style="fill:url(#uuid-d08893fa-2b69-4230-8cf0-2734b4fdc7c9); opacity:.07;"/></g></svg>