<?xml version="1.0" encoding="UTF-8"?><svg id="a" xmlns="http://www.w3.org/2000/svg" viewBox="0 0 372.91 56.86"><defs><style>.c{fill:#303030;}</style></defs><g id="b"><g><polygon class="c" points="30.37 50.44 8.3 28.36 30.37 6.29 43.66 19.58 45.27 17.97 30.37 3.07 5.08 28.36 30.37 53.66 45.27 38.76 43.66 37.15 30.37 50.44"/><polygon class="c" points="29.56 9.77 10.97 28.36 29.56 46.96 31.18 45.35 23.8 37.97 27.06 34.71 23.89 31.54 27.06 28.36 23.77 25.07 27.06 21.78 23.92 18.63 31.18 11.38 29.56 9.77"/></g><path class="c" d="M188.38,41.2h-3.07v3.07l-.1,.1h-3.07v3.07l-.23,.23h-3.07v3.07l-.27,.27-14.08-14.08,7.15-7.15h.98l-7.15,7.15,10.53,10.53,1.61-1.61-8.92-8.92,7.15-7.15h2v4.47l9.71-5.61-9.71-5.61v4.47h-2l-7.14-7.14,8.92-8.92-1.61-1.61-10.53,10.53,7.14,7.14h-.98l-7.14-7.14,14.08-14.08,.39,.39v3.12h3.12l.06,.06v3.12h3.12l.18,.18v3.12h3.12l.33,.33,1.61-1.61-11.92-11.92-17.3,17.3,7.14,7.14h-3.74v2.28h3.75l-7.15,7.15,17.3,17.3,11.92-11.92-1.61-1.61-.5,.5Zm-8.27-14.21l2.88,1.66-2.88,1.66v-3.32Z"/><g><polygon class="c" points="249.81 45.24 249.81 51.83 255.52 48.53 249.81 45.24"/><polygon class="c" points="249.81 5.81 249.81 12.41 255.52 9.11 249.81 5.81"/><polygon class="c" points="249.81 37.35 249.81 43.95 255.52 40.65 249.81 37.35"/><polygon class="c" points="249.81 13.7 249.81 20.29 255.52 16.99 249.81 13.7"/><polygon class="c" points="249.81 21.58 249.81 28.18 255.52 24.88 249.81 21.58"/><polygon class="c" points="249.81 29.47 249.81 36.06 255.52 32.76 249.81 29.47"/><polygon class="c" points="254.96 34.82 251.61 36.75 254.96 38.69 254.96 34.82"/><polygon class="c" points="254.96 26.93 251.61 28.87 254.96 30.8 254.96 26.93"/><polygon class="c" points="254.96 19.05 251.61 20.98 254.96 22.92 254.96 19.05"/><polygon class="c" points="254.96 11.16 251.61 13.1 254.96 15.03 254.96 11.16"/><polygon class="c" points="260.62 9.1 260.62 5.05 253.6 5.05 257.24 7.15 257.24 50.55 253.6 52.65 260.61 52.65 260.61 48.6 259.52 49.23 259.52 8.47 260.62 9.1"/><polygon class="c" points="254.96 42.7 251.61 44.64 254.96 46.57 254.96 42.7"/></g><path class="c" d="M152.49,20.76V5.08h-5.69v15.68h1.78v.28h-1.78v15.68h1.78v.28h-1.78v8.56l-15.59-40.93-2.08,.79h-.07l-3.2,2.35v-2.57h-12.46V31.72h12.46v-1.61l3.31,.47-3.31,2.43v-.34h-12.46v9.49h12.46v-2.57l3.31,.47-3.6,2.65,3.6,.51-3.31,2.43v-2.3h-12.46v9.49h12.46v-.61l4.71,.67V9.54l16.22,42.57v.56h5.69v-15.68h-1.64v-.28h1.64v-15.68h-1.64v-.28h1.64Zm-28.9,.37l-5.35,3.04v2.84l4.3,2.44h-6.86v-6.57l5.33-3.03v-2.84l-5.33-3.03V7.47h6.86l-4.3,2.44v2.84l5.35,3.04v5.33Zm2.28-13.1l3.31,.47-3.31,2.43v-2.91Zm0,9.48l3.31,.47-3.31,2.43v-2.91Zm0,3.16l3.31,.47-3.31,2.43v-2.91Zm0,3.16l3.28,.47-3.28,2.41v-2.88Zm0,6.04v-2.91l3.31,.47-3.31,2.43Zm0-12.61v-2.91l3.31,.47-3.31,2.43Zm0-3.16v-2.91l3.31,.47-3.31,2.43Zm-2.28,25.8h-7.91v-1.33h7.91v1.33Zm0-3.6h-7.91v-1.33h7.91v1.33Zm-5.09,14.28h-2.81v-4.93h2.81v4.93Zm5.09,0h-2.81v-4.93h2.81v4.93Zm2.28,1.42v-2.91l3.31,.47-3.31,2.43Zm0-3.16v-2.91l3.31,.47-3.31,2.43Zm0-9.48v-2.91l3.31,.47-3.31,2.43Zm0-3.16v-2.91l3.31,.47-3.31,2.43Zm24.34,14.21h-1.14v-11.12h1.14v11.12Zm0-15.95h-1.14v-11.12h1.14v11.12Zm0-15.95h-1.14V7.36h1.14v11.12Z"/><path class="c" d="M367.83,20.76V5.08h-5.69v15.68h1.78v.28h-1.78v15.68h1.78v.28h-1.78v8.56l-15.59-40.93-2.08,.79h-.07l-3.2,2.35v-2.57h-12.46V31.72h12.46v-1.61l3.31,.47-3.31,2.43v-.34h-12.46v9.49h12.46v-2.57l3.31,.47-3.6,2.65,3.6,.51-3.31,2.43v-2.3h-12.46v9.49h12.46v-.61l4.71,.67V9.54l16.22,42.57v.56h5.69v-15.68h-1.64v-.28h1.64v-15.68h-1.64v-.28h1.64Zm-28.9,.37l-5.35,3.04v2.84l4.3,2.44h-6.86v-6.57l5.33-3.03v-2.84l-5.33-3.03V7.47h6.86l-4.3,2.44v2.84l5.35,3.04v5.33Zm2.28-13.1l3.31,.47-3.31,2.43v-2.91Zm0,9.48l3.31,.47-3.31,2.43v-2.91Zm0,3.16l3.31,.47-3.31,2.43v-2.91Zm0,3.16l3.28,.47-3.28,2.41v-2.88Zm0,6.04v-2.91l3.31,.47-3.31,2.43Zm0-12.61v-2.91l3.31,.47-3.31,2.43Zm0-3.16v-2.91l3.31,.47-3.31,2.43Zm-2.28,25.8h-7.91v-1.33h7.91v1.33Zm0-3.6h-7.91v-1.33h7.91v1.33Zm-5.09,14.28h-2.81v-4.93h2.81v4.93Zm5.09,0h-2.81v-4.93h2.81v4.93Zm2.28,1.42v-2.91l3.31,.47-3.31,2.43Zm0-3.16v-2.91l3.31,.47-3.31,2.43Zm0-9.48v-2.91l3.31,.47-3.31,2.43Zm0-3.16v-2.91l3.31,.47-3.31,2.43Zm24.34,14.21h-1.14v-11.12h1.14v11.12Zm0-15.95h-1.14v-11.12h1.14v11.12Zm0-15.95h-1.14V7.36h1.14v11.12Z"/><g><polygon class="c" points="305.12 32.82 309.56 28.37 305.12 23.92 305.12 32.82"/><polygon class="c" points="282.93 24.52 279.08 28.37 282.93 32.22 282.93 24.52"/><path class="c" d="M317.2,22.2l-1.93,1.93-21.05-21.05-25.28,25.28,25.28,25.28,25.28-25.28-2.62-2.62,3.54-3.54-3.66-3.66,3.23-3.23-1.61-1.61-4.84,4.84,3.66,3.66Zm-.92,6.16l-22.06,22.06-22.06-22.06,22.06-22.06,19.44,19.44-1.01,1.01-14.86-14.86-1.61,1.61,6.21,6.21-2.07,2.07,3.29,3.29-3.29,3.29,3.17,3.17-3.17,3.17,2.19,2.19-6.33,6.33,1.61,1.61,17.49-17.49,1.01,1.01Zm-12.05,6.81v-13.61l6.81,6.81-6.81,6.81Z"/><path class="c" d="M285.99,36.95l1.99-1.99-3.29-3.29,3.29-3.29-3.17-3.17,3.17-3.17-2.12-2.12,6.41-6.41-1.61-1.61-16.48,16.48,16.48,16.48,1.61-1.61-6.28-6.28Zm-1.92-15.24v13.32l-6.66-6.66,6.66-6.66Z"/></g><g><polygon class="c" points="74.89 38.8 79.33 43.25 83.78 38.8 74.89 38.8"/><polygon class="c" points="83.18 16.61 79.33 12.76 75.48 16.61 83.18 16.61"/><path class="c" d="M85.5,50.89l-1.93-1.93,21.05-21.05L79.34,2.62l-25.28,25.28,25.28,25.28,2.62-2.62,3.54,3.54,3.66-3.66,3.23,3.23,1.61-1.61-4.84-4.84-3.66,3.66Zm-6.16-.92l-22.06-22.06L79.34,5.84l22.06,22.06-19.44,19.44-1.01-1.01,14.86-14.86-1.61-1.61-6.21,6.21-2.07-2.07-3.29,3.29-3.29-3.29-3.17,3.17-3.17-3.17-2.19,2.19-6.33-6.33-1.61,1.61,17.49,17.49-1.01,1.01Zm-6.81-12.05h13.61l-6.81,6.81-6.81-6.81Z"/><path class="c" d="M70.75,19.67l1.99,1.99,3.29-3.29,3.29,3.29,3.17-3.17,3.17,3.17,2.12-2.12,6.41,6.41,1.61-1.61L79.34,7.86l-16.48,16.48,1.61,1.61,6.28-6.28Zm15.24-1.92h-13.32l6.66-6.66,6.66,6.66Z"/></g><g><path class="c" d="M231.3,14.86v-2.67l.6-.6h2.67v-2.67l.72-.72h2.67v-2.56h3.07V3.36h-9.02v2.28h2.62l-6.79,6.79h-15.48l-6.79-6.79h2.72V3.36h-9.02v2.28h2.97v2.64h2.75l.52,.52v2.75h2.75l.64,.64v2.75h2.75l3.7,3.7-2.99,2.99,3.14,3.14-3.15,3.15,3.09,3.09-3.09,3.09,3.04,3.04-3.83,3.83h-2.67v2.67l-.59,.59h-2.67v2.67l-.72,.72h-2.67v2.54h-2.97v2.28h9.02v-2.28h-2.7l6.18-6.18h16.65l6.18,6.18h-2.6v2.28h9.02v-2.28h-3.07v-2.62h-2.75l-.52-.52v-2.75h-2.75l-.64-.64v-2.75h-2.75l-3.99-3.99,2.81-2.81-2.85-2.85,3.33-3.33-3.38-3.38,2.91-2.91-2.76-2.76,4.01-4.01h2.67Zm-5.74-.15l-5.46,5.46-5.46-5.46h10.92Zm-8.93,5.21l1.86,1.86-1.86,1.86v-3.72Zm0,12.28l1.86,1.86-1.86,1.86v-3.72Zm-2.58,9.51l6.05-6.05,6.04,6.05h-12.09Zm9.05-6.26l-1.39-1.39,1.39-1.39v2.78Zm-3-3l-4.53-4.53,4.53-4.53,4.53,4.53-4.53,4.53Zm3-9.27l-1.39-1.39,1.39-1.39v2.78Z"/><rect class="c" x="218.59" y="26.37" width="2.88" height="2.88" transform="translate(44.78 163.73) rotate(-45)"/></g></g></svg>